<?xml version="1.0" encoding="utf-8"?>
<!-- Generator: Adobe Illustrator 22.1.0, SVG Export Plug-In . SVG Version: 6.00 Build 0)  -->
<svg version="1.1" id="Layer_1" xmlns="http://www.w3.org/2000/svg" xmlns:xlink="http://www.w3.org/1999/xlink" x="0px" y="0px"
	 viewBox="0 0 1218.5 1084.1" style="enable-background:new 0 0 1218.5 1084.1;" xml:space="preserve">
<style type="text/css">
	.st0{fill:#FFFFFF;}
	.st1{fill:#FF0026;}
	.st2{fill:#01FFFF;}
</style>
<g>
	<g>
		<path class="st0" d="M45.3,946.1c-0.9,0.3-1.8,0.6-2.6,0.8c-0.8,0.2-1.8,0.4-2.8,0.5c-1,0.1-2.2,0.2-3.5,0.2
			c-1.3,0-2.9,0.1-4.7,0.1h-8.4v28.2h-23v-88.4h29.3c2.8,0,5.4,0.1,7.9,0.2c2.5,0.1,5.1,0.6,7.8,1.4c3.2,1,6,2.4,8.4,4.3
			c2.4,1.8,4.4,4,6,6.4c1.6,2.5,2.8,5.2,3.6,8.1c0.8,3,1.2,6,1.2,9.2c0,3.2-0.4,6.3-1.2,9.3c-0.8,3-2,5.8-3.6,8.3
			c-1.6,2.5-3.6,4.8-6,6.8C51.2,943.5,48.4,945,45.3,946.1z M35.6,908c-0.9-0.3-1.8-0.5-2.6-0.5c-0.8,0-1.6,0-2.6,0h-7v19.8h6.6
			c1.4,0,2.5-0.1,3.1-0.2c0.7-0.1,1.4-0.3,2.1-0.4c0.6-0.2,1.2-0.5,1.9-0.9c0.7-0.4,1.4-1,2-1.7c0.6-0.7,1.2-1.6,1.6-2.7
			c0.5-1.1,0.7-2.4,0.7-4c0-2.2-0.5-4.1-1.4-5.8C39.2,910,37.7,908.8,35.6,908z"/>
		<path class="st0" d="M107.3,975.9l-18-28.3v28.3H66.9v-88.4h32.8c4.2,0,8.1,0.3,11.6,0.9c3.6,0.6,7.1,2.2,10.6,4.9
			c1.1,0.8,2.3,1.9,3.5,3.3c1.3,1.4,2.4,3.1,3.6,5.1c1.1,2,2.1,4.3,2.8,6.9s1.1,5.7,1.1,9.1c0,3.5-0.4,6.6-1.3,9.3
			c-0.8,2.7-1.9,5-3.1,6.9c-1.2,2-2.5,3.6-3.9,4.9c-1.4,1.3-2.6,2.3-3.7,3.1c-0.9,0.7-1.9,1.3-2.9,1.8c-1,0.5-2.7,1.2-5,2.1
			l21.4,30.2H107.3z M108.9,912c-1.4-2.3-3.2-3.6-5.3-4.1c-2.1-0.5-4.4-0.7-6.8-0.7h-7.5v24.3h7.1c0.3-0.1,0.6-0.1,1-0.1
			c0.6,0,1,0,1.4-0.1c0.7-0.1,1.3-0.2,1.9-0.3c0.6-0.1,1.2-0.2,1.9-0.4c0.8-0.3,1.6-0.6,2.5-1.2c0.9-0.5,1.8-1.3,2.6-2.3
			c0.8-1,1.5-2.1,2.1-3.6c0.6-1.4,0.9-3.1,0.9-5c0-1.2-0.1-2.3-0.3-3.4C110,914.2,109.6,913.1,108.9,912z"/>
		<path class="st0" d="M135.6,975.9v-88.4h22.5v88.4H135.6z"/>
		<path class="st0" d="M217.2,975.9L184,927.6v48.3h-22.2v-88.4h19.7c3.9,5.6,7.8,11,11.5,16.3c3.8,5.3,7.5,10.8,11.3,16.5
			l10.4,15.9v-48.7H237v88.4H217.2z"/>
		<path class="st0" d="M280.4,907.5v68.3H258v-68.5h-17.3v-19.9h57.3v20H280.4z"/>
		<path class="st0" d="M392.8,975.9h-21.7l-9.3-34.8l-4-15.3l-13.4,50.1h-20.9l-25-88.4h24.5l8.4,34.7c0.5,2.1,1,4.3,1.5,6.8
			c0.5,2.4,1.3,5.7,2.3,9.9l3.5-15.6l9.5-35.7h19.5l9.4,34l4.5,18.1c0.9-4.5,1.7-8,2.3-10.6c0.6-2.5,1.1-4.9,1.6-7.2l7.8-34.4h22.4
			L392.8,975.9z"/>
		<path class="st0" d="M490.4,961.2c-4.3,5.3-9.5,9.3-15.7,12.1c-6.2,2.8-12.7,4.2-19.5,4.2c-6,0-11.9-1.2-17.6-3.6
			c-5.7-2.4-10.7-5.7-15-10c-4.3-4.3-7.6-9.2-10-15c-2.4-5.7-3.6-11.6-3.6-17.6c0-1.3,0.1-3.1,0.3-5.3c0.2-2.2,0.7-4.6,1.4-7.3
			c0.8-2.7,1.9-5.5,3.3-8.5c1.5-3,3.4-5.9,5.9-8.8c2.1-2.5,4.5-4.8,7.2-6.8c2.7-2,5.6-3.7,8.6-5.1c3-1.4,6.2-2.4,9.5-3.2
			c3.3-0.8,6.6-1.1,9.8-1.1c3.8,0,7.2,0.4,10.5,1.3c3.2,0.8,6.1,1.8,8.6,3c2.5,1.2,4.7,2.4,6.6,3.6c1.8,1.3,3.3,2.3,4.3,3.1
			c5.1,4.3,9.1,9.6,11.9,15.8c2.8,6.2,4.3,12.6,4.3,19.4c0,1.3-0.1,3.1-0.3,5.3c-0.2,2.2-0.7,4.6-1.4,7.2c-0.8,2.6-1.9,5.4-3.3,8.4
			C494.8,955.4,492.9,958.3,490.4,961.2z M478.5,922.8c-0.9-2.4-2.1-4.6-3.7-6.6c-1.5-2-3.3-3.6-5.4-5.1c-2-1.4-4.3-2.5-6.7-3.3
			c-2.4-0.8-4.9-1.1-7.5-1.1c-0.8,0-1.8,0.1-3.1,0.3c-1.3,0.2-2.8,0.5-4.3,1c-1.5,0.5-3.2,1.2-4.9,2.1c-1.8,0.9-3.4,2.1-5,3.6
			c-2.4,2.3-4.3,5-5.5,8.1c-1.3,3.1-1.9,6.3-1.9,9.6c0,0.8,0.1,1.8,0.2,3.1c0.1,1.3,0.4,2.8,0.9,4.4c0.5,1.6,1.2,3.3,2.2,5
			c1,1.8,2.3,3.4,3.9,5c2.3,2.3,4.9,4.1,8.1,5.4c3.1,1.3,6.3,1.9,9.5,1.9c2.4,0,4.6-0.3,6.6-0.9c2-0.6,3.7-1.3,5.2-2.1
			c1.5-0.8,2.8-1.7,3.8-2.6c1-0.9,1.9-1.6,2.4-2.2c0.6-0.6,1.3-1.4,2.1-2.4c0.8-1,1.5-2.2,2.2-3.7c0.7-1.5,1.3-3.1,1.8-4.9
			c0.5-1.8,0.8-3.8,0.8-6.1C480,928.5,479.5,925.6,478.5,922.8z"/>
		<path class="st0" d="M544.3,975.9l-18-28.3v28.3h-22.4v-88.4h32.8c4.2,0,8.1,0.3,11.6,0.9c3.6,0.6,7.1,2.2,10.6,4.9
			c1.1,0.8,2.3,1.9,3.5,3.3c1.3,1.4,2.4,3.1,3.6,5.1c1.1,2,2.1,4.3,2.8,6.9s1.1,5.7,1.1,9.1c0,3.5-0.4,6.6-1.3,9.3
			c-0.8,2.7-1.9,5-3.1,6.9c-1.2,2-2.5,3.6-3.9,4.9c-1.4,1.3-2.6,2.3-3.7,3.1c-0.9,0.7-1.9,1.3-2.9,1.8c-1,0.5-2.7,1.2-5,2.1
			l21.4,30.2H544.3z M545.9,912c-1.4-2.3-3.2-3.6-5.3-4.1c-2.1-0.5-4.4-0.7-6.8-0.7h-7.5v24.3h7.1c0.3-0.1,0.6-0.1,1-0.1
			c0.6,0,1,0,1.4-0.1c0.7-0.1,1.3-0.2,1.9-0.3c0.6-0.1,1.2-0.2,1.9-0.4c0.8-0.3,1.6-0.6,2.5-1.2c0.9-0.5,1.8-1.3,2.6-2.3
			c0.8-1,1.5-2.1,2.1-3.6c0.6-1.4,0.9-3.1,0.9-5c0-1.2-0.1-2.3-0.3-3.4C547,914.2,546.6,913.1,545.9,912z"/>
		<path class="st0" d="M616.9,932.1l29,43.8h-27.5l-23.2-36.7v36.7h-22.7v-88.4h22.7v39.1l25.9-39.1h25.7L616.9,932.1z"/>
		<path class="st0" d="M688.6,971.6c-2,1.5-3.9,2.7-5.8,3.4c-1.9,0.8-3.6,1.4-5.3,1.8s-3.1,0.6-4.5,0.7c-1.4,0.1-2.6,0.1-3.6,0.1
			c-4.4,0-8.2-0.6-11.5-1.8c-3.2-1.2-5.9-2.6-8.1-4.3c-2.2-1.7-4-3.5-5.3-5.5c-1.3-2-2.3-3.8-2.9-5.4c-0.8-2.2-1.3-4.3-1.5-6.5
			c-0.3-2.2-0.4-4.6-0.5-7.4h21.5c0,2.2,0.2,4.2,0.6,6.1c0.4,1.9,1.5,3.4,3.4,4.4c0.4,0.2,1,0.5,1.6,0.8c0.7,0.2,1.5,0.4,2.6,0.4
			c2.3,0,4.1-0.7,5.5-2.1c1.4-1.4,2.1-3.2,2.1-5.4c0-2.7-0.8-4.7-2.4-6.1c-1.6-1.4-3.5-2.6-5.6-3.7l-4.1-1.6
			c-1.7-0.7-3.3-1.4-4.8-2.1c-1.5-0.7-3.1-1.5-4.7-2.3c-1-0.6-2.3-1.4-3.9-2.6s-3.2-2.6-4.7-4.5c-1.5-1.9-2.8-4.1-3.9-6.8
			c-1.1-2.6-1.7-5.7-1.7-9.2c0-1,0.1-2.2,0.2-3.6c0.1-1.4,0.5-2.9,1-4.5c0.5-1.6,1.3-3.3,2.4-5.1c1-1.8,2.5-3.5,4.3-5.3
			c2-1.9,4.1-3.4,6.3-4.6c2.2-1.1,4.3-2,6.3-2.6c2-0.6,3.8-1,5.4-1.1c1.6-0.2,2.9-0.2,3.9-0.2c1,0,2.4,0.1,4.1,0.2
			c1.7,0.1,3.6,0.6,5.8,1.3c2.7,0.9,5,2,6.9,3.4c2,1.3,3.6,2.8,4.9,4.3c1.3,1.5,2.4,3,3.2,4.4c0.8,1.5,1.5,2.7,1.9,3.7
			c0.2,0.5,0.3,1,0.5,1.4c0.2,0.4,0.3,0.8,0.4,1.3c0.2,0.4,0.3,0.9,0.3,1.3c0,0.5,0.1,0.9,0.3,1.3c0.2,0.9,0.2,1.8,0.2,2.6
			c0,0.8,0,1.8,0.2,2.9h-20.9c0-1.2,0-2-0.1-2.5c0-0.5-0.1-1-0.3-1.4c-0.4-1.5-1.3-2.7-2.5-3.5c-1.3-0.8-2.7-1.3-4.3-1.3
			c-2.1,0-3.8,0.6-5,1.9s-1.9,3-1.9,5.1c0,0.9,0.1,1.7,0.4,2.3c0.3,0.6,0.6,1.1,0.8,1.4c1,1.3,2.4,2.4,4.1,3.4c1,0.5,2.1,1,3.2,1.5
			c1.1,0.5,2.5,1.1,4.1,1.8c3.8,1.8,6.9,3.3,9.3,4.7c2.3,1.4,4.1,2.6,5.3,3.7c0.7,0.5,1.3,1,1.8,1.6c0.8,0.7,1.5,1.5,2.3,2.6
			c2.2,2.9,3.4,5.6,3.8,8.1c0.4,2.5,0.6,4.4,0.6,5.8c0,1.3-0.1,2.9-0.3,4.8c-0.2,1.8-0.7,3.8-1.5,5.8c-0.8,2-2,4.2-3.5,6.3
			C693.4,967.5,691.2,969.6,688.6,971.6z"/>
		<path class="st0" d="M719.6,971c-1.4,1.7-3.1,2.9-4.9,3.6s-3.9,1.2-6.1,1.4h-2.3h-3.6v-10.4c3.7,0.1,6-0.6,7.1-2.2
			c1.1-1.5,1.5-4.1,1.3-7.6h-8.4V935h20.7v22.5c0,2.6-0.2,4.9-0.6,7.1C722.4,966.7,721.4,968.9,719.6,971z"/>
		<path class="st0" d="M749.7,975.9v-88.4h22.8v67.6H799v20.8H749.7z"/>
		<path class="st0" d="M876.5,961.2c-4.3,5.3-9.5,9.3-15.7,12.1c-6.2,2.8-12.7,4.2-19.5,4.2c-6,0-11.9-1.2-17.6-3.6
			c-5.7-2.4-10.7-5.7-15-10c-4.3-4.3-7.6-9.2-10-15c-2.4-5.7-3.6-11.6-3.6-17.6c0-1.3,0.1-3.1,0.3-5.3c0.2-2.2,0.7-4.6,1.4-7.3
			c0.8-2.7,1.9-5.5,3.3-8.5c1.5-3,3.4-5.9,5.9-8.8c2.1-2.5,4.5-4.8,7.2-6.8c2.7-2,5.6-3.7,8.6-5.1s6.2-2.4,9.5-3.2
			c3.3-0.8,6.6-1.1,9.8-1.1c3.8,0,7.2,0.4,10.5,1.3c3.2,0.8,6.1,1.8,8.6,3c2.5,1.2,4.7,2.4,6.6,3.6c1.8,1.3,3.3,2.3,4.3,3.1
			c5.1,4.3,9.1,9.6,11.9,15.8c2.8,6.2,4.3,12.6,4.3,19.4c0,1.3-0.1,3.1-0.3,5.3c-0.2,2.2-0.7,4.6-1.4,7.2c-0.8,2.6-1.9,5.4-3.3,8.4
			C880.8,955.4,878.9,958.3,876.5,961.2z M864.6,922.8c-0.9-2.4-2.1-4.6-3.7-6.6c-1.5-2-3.3-3.6-5.4-5.1c-2-1.4-4.3-2.5-6.7-3.3
			c-2.4-0.8-4.9-1.1-7.5-1.1c-0.8,0-1.8,0.1-3.1,0.3c-1.3,0.2-2.8,0.5-4.3,1c-1.5,0.5-3.2,1.2-4.9,2.1c-1.8,0.9-3.4,2.1-5,3.6
			c-2.4,2.3-4.3,5-5.5,8.1c-1.3,3.1-1.9,6.3-1.9,9.6c0,0.8,0.1,1.8,0.2,3.1c0.1,1.3,0.4,2.8,0.9,4.4c0.5,1.6,1.2,3.3,2.2,5
			c1,1.8,2.3,3.4,3.9,5c2.3,2.3,4.9,4.1,8.1,5.4c3.1,1.3,6.3,1.9,9.5,1.9c2.4,0,4.6-0.3,6.6-0.9c2-0.6,3.7-1.3,5.2-2.1
			c1.5-0.8,2.8-1.7,3.8-2.6c1-0.9,1.9-1.6,2.4-2.2c0.6-0.6,1.3-1.4,2.1-2.4c0.8-1,1.5-2.2,2.2-3.7c0.7-1.5,1.3-3.1,1.8-4.9
			c0.5-1.8,0.8-3.8,0.8-6.1C866.1,928.5,865.6,925.6,864.6,922.8z"/>
		<path class="st0" d="M945.2,975.9L912,927.6v48.3h-22.2v-88.4h19.7c3.9,5.6,7.8,11,11.5,16.3c3.8,5.3,7.5,10.8,11.3,16.5
			l10.4,15.9v-48.7h22.3v88.4H945.2z"/>
		<path class="st0" d="M1003,975.9h-34.3v-88.4h34.5c6.2,0,12,1.1,17.3,3.4c5.4,2.3,10.1,5.4,14.1,9.5c4,4,7.2,8.7,9.5,14.1
			c2.3,5.4,3.4,11.1,3.4,17.2c0,6.2-1.2,11.9-3.5,17.3c-2.3,5.3-5.5,10-9.6,14c-4,4-8.8,7.2-14.2,9.5
			C1014.8,974.7,1009.1,975.9,1003,975.9z M1001.6,907.5h-10.3v47.9h10.3c3.3,0,6.3-0.6,9.1-1.9c2.8-1.3,5.2-3,7.3-5.1
			c2.1-2.2,3.7-4.7,4.9-7.6c1.2-2.9,1.8-6,1.8-9.3c0-3.3-0.6-6.3-1.8-9.3c-1.2-2.9-2.9-5.5-4.9-7.6c-2.1-2.2-4.5-3.9-7.3-5.2
			C1007.9,908.2,1004.9,907.5,1001.6,907.5z"/>
		<path class="st0" d="M1130,961.2c-4.3,5.3-9.5,9.3-15.7,12.1c-6.2,2.8-12.7,4.2-19.5,4.2c-6,0-11.9-1.2-17.6-3.6
			c-5.7-2.4-10.7-5.7-15-10c-4.3-4.3-7.6-9.2-10-15c-2.4-5.7-3.6-11.6-3.6-17.6c0-1.3,0.1-3.1,0.3-5.3c0.2-2.2,0.7-4.6,1.4-7.3
			c0.8-2.7,1.9-5.5,3.3-8.5c1.5-3,3.4-5.9,5.9-8.8c2.1-2.5,4.5-4.8,7.2-6.8c2.7-2,5.6-3.7,8.6-5.1s6.2-2.4,9.5-3.2
			c3.3-0.8,6.6-1.1,9.8-1.1c3.8,0,7.2,0.4,10.5,1.3c3.2,0.8,6.1,1.8,8.6,3c2.5,1.2,4.7,2.4,6.6,3.6c1.8,1.3,3.3,2.3,4.3,3.1
			c5.1,4.3,9.1,9.6,11.9,15.8c2.8,6.2,4.3,12.6,4.3,19.4c0,1.3-0.1,3.1-0.3,5.3c-0.2,2.2-0.7,4.6-1.4,7.2c-0.8,2.6-1.9,5.4-3.3,8.4
			C1134.4,955.4,1132.5,958.3,1130,961.2z M1118.1,922.8c-0.9-2.4-2.1-4.6-3.7-6.6c-1.5-2-3.3-3.6-5.4-5.1c-2-1.4-4.3-2.5-6.7-3.3
			c-2.4-0.8-4.9-1.1-7.5-1.1c-0.8,0-1.8,0.1-3.1,0.3c-1.3,0.2-2.8,0.5-4.3,1c-1.5,0.5-3.2,1.2-4.9,2.1c-1.8,0.9-3.4,2.1-5,3.6
			c-2.4,2.3-4.3,5-5.5,8.1c-1.3,3.1-1.9,6.3-1.9,9.6c0,0.8,0.1,1.8,0.2,3.1c0.1,1.3,0.4,2.8,0.9,4.4c0.5,1.6,1.2,3.3,2.2,5
			c1,1.8,2.3,3.4,3.9,5c2.3,2.3,4.9,4.1,8.1,5.4c3.1,1.3,6.3,1.9,9.5,1.9c2.4,0,4.6-0.3,6.6-0.9c2-0.6,3.7-1.3,5.2-2.1
			c1.5-0.8,2.8-1.7,3.8-2.6c1-0.9,1.9-1.6,2.4-2.2c0.6-0.6,1.3-1.4,2.1-2.4c0.8-1,1.5-2.2,2.2-3.7c0.7-1.5,1.3-3.1,1.8-4.9
			c0.5-1.8,0.8-3.8,0.8-6.1C1119.6,928.5,1119.1,925.6,1118.1,922.8z"/>
		<path class="st0" d="M1198.8,975.9l-33.2-48.3v48.3h-22.2v-88.4h19.7c3.9,5.6,7.8,11,11.5,16.3c3.8,5.3,7.5,10.8,11.3,16.5
			l10.4,15.9v-48.7h22.3v88.4H1198.8z"/>
		<path class="st0" d="M116.5,1076.6c-3.2,2.7-6.5,4.5-10,5.6c-3.5,1.1-7.3,1.6-11.4,1.6c-3.1,0-6.1-0.3-9.1-1
			c-3-0.7-5.8-1.7-8.4-3.1c-2.6-1.4-4.9-3.2-6.9-5.4c-2-2.2-3.7-4.9-4.8-7.9c-0.3-0.9-0.6-1.8-0.8-2.8c-0.2-0.9-0.4-1.8-0.6-2.8
			c-0.2-0.7-0.3-1.4-0.3-2.3c0-0.9-0.1-1.9-0.3-3.2h22.3c0.1,0.5,0.1,0.9,0.1,1.3c0,0.4,0,0.7,0.1,0.9c0.1,0.3,0.1,0.6,0.2,0.8
			c0,0.2,0.1,0.5,0.2,0.8c0.7,1.7,1.8,3,3.3,3.9c1.5,1,3.2,1.4,5.1,1.4c2.7,0,4.8-0.9,6.3-2.8c1.5-1.8,2.3-4,2.3-6.4
			c0-0.8-0.2-1.9-0.5-3.4c-0.3-1.5-1.3-2.8-3-4c-1.4-0.9-2.8-1.5-4.1-1.6c-1.3-0.2-2.8-0.2-4.4-0.2h-5.9v-16.9h3.1
			c2.2,0,4.1-0.3,5.9-0.8c1.8-0.5,3.3-1.8,4.4-3.8c0.3-0.6,0.6-1.4,0.9-2.3c0.3-1,0.4-2.2,0.4-3.7c0-1.9-0.5-3.7-1.4-5.3
			c-0.9-1.6-2.5-2.4-4.6-2.4c-2,0-3.5,0.7-4.6,2c-1.1,1.3-1.8,2.8-2,4.5v1.9H66.2c0.2-2.2,0.5-4.2,0.8-5.9c0.3-1.8,0.7-3.5,1.3-5
			c0.5-1.5,1.3-3,2.3-4.4c1-1.4,2.2-2.8,3.7-4.3c0.4-0.4,1.3-1.2,2.8-2.4c1.5-1.1,3.1-2,4.9-2.9c0.7-0.3,1.4-0.5,2.1-0.8
			c0.8-0.3,1.8-0.5,3.3-0.9c0.7-0.2,1.7-0.4,3-0.6c1.3-0.2,2.9-0.3,4.8-0.3c2.5,0,4.7,0.2,6.7,0.7c2,0.5,3.4,0.9,4.2,1.2
			c4.8,1.8,8.6,4.6,11.6,8.4c3,3.9,4.5,8.4,4.5,13.7c0,6.1-2.3,11.3-6.8,15.5c-0.4,0.3-0.9,0.7-1.4,1.1c-0.5,0.4-1.4,1-2.6,1.9
			l4.3,2.4c3.2,1.7,5.4,3.5,6.7,5.4c1.3,2,2.2,3.7,2.8,5.1c0.3,0.7,0.6,1.7,1,3.1c0.4,1.4,0.6,3.2,0.6,5.4c0,1.1-0.1,2.4-0.4,4
			c-0.3,1.6-0.7,3.3-1.4,5.1c-0.7,1.8-1.7,3.8-3.1,5.8C120.4,1072.8,118.7,1074.7,116.5,1076.6z"/>
		<path class="st0" d="M136.2,1082.1v-71.5H126v-16.9h32.3v88.4H136.2z"/>
		<path class="st0" d="M209.7,1077.8c-2,1.5-3.9,2.7-5.8,3.4c-1.9,0.8-3.6,1.4-5.3,1.8c-1.6,0.4-3.1,0.6-4.5,0.7
			c-1.4,0.1-2.6,0.1-3.6,0.1c-4.4,0-8.2-0.6-11.5-1.8c-3.2-1.2-5.9-2.6-8.1-4.3c-2.2-1.7-4-3.5-5.3-5.5c-1.3-2-2.3-3.8-2.9-5.4
			c-0.8-2.2-1.3-4.3-1.5-6.5c-0.3-2.2-0.4-4.6-0.5-7.4h21.5c0,2.2,0.2,4.2,0.6,6.1c0.4,1.9,1.5,3.4,3.4,4.4c0.4,0.3,1,0.5,1.6,0.8
			c0.7,0.3,1.5,0.4,2.6,0.4c2.3,0,4.1-0.7,5.5-2.1c1.4-1.4,2.1-3.2,2.1-5.4c0-2.7-0.8-4.7-2.4-6.1c-1.6-1.4-3.5-2.6-5.6-3.7
			l-4.1-1.6c-1.7-0.7-3.3-1.4-4.8-2.1c-1.5-0.7-3.1-1.5-4.7-2.3c-1-0.6-2.3-1.4-3.9-2.6c-1.6-1.1-3.2-2.6-4.7-4.5
			c-1.5-1.9-2.8-4.1-3.9-6.8c-1.1-2.6-1.7-5.7-1.7-9.2c0-1,0.1-2.2,0.2-3.6c0.1-1.4,0.5-2.9,1-4.5c0.5-1.6,1.3-3.3,2.4-5.1
			c1-1.8,2.5-3.5,4.3-5.3c2-1.9,4.1-3.4,6.3-4.6c2.2-1.1,4.3-2,6.3-2.6c2-0.6,3.8-1,5.4-1.1c1.6-0.2,2.9-0.3,3.9-0.3
			c1,0,2.4,0.1,4.1,0.2c1.7,0.1,3.6,0.6,5.8,1.3c2.7,0.9,5,2,6.9,3.4c2,1.3,3.6,2.8,4.9,4.3c1.3,1.5,2.4,3,3.2,4.4
			c0.8,1.5,1.5,2.7,1.9,3.7c0.2,0.5,0.3,1,0.5,1.4c0.2,0.4,0.3,0.8,0.4,1.3c0.2,0.4,0.3,0.9,0.3,1.3c0,0.5,0.1,0.9,0.3,1.3
			c0.2,0.9,0.2,1.8,0.2,2.6c0,0.8,0,1.8,0.2,2.9h-20.9c0-1.2,0-2-0.1-2.5c0-0.5-0.1-1-0.3-1.4c-0.4-1.5-1.3-2.7-2.5-3.5
			c-1.3-0.8-2.7-1.3-4.3-1.3c-2.1,0-3.8,0.6-5,1.9c-1.3,1.3-1.9,3-1.9,5.1c0,0.9,0.1,1.7,0.4,2.3c0.3,0.6,0.6,1.1,0.8,1.4
			c1,1.3,2.4,2.4,4.1,3.4c1,0.5,2.1,1,3.2,1.5c1.1,0.5,2.5,1.1,4.1,1.8c3.8,1.8,6.9,3.3,9.3,4.7c2.3,1.4,4.1,2.6,5.3,3.7
			c0.7,0.5,1.3,1,1.8,1.6c0.8,0.7,1.5,1.5,2.3,2.6c2.2,2.9,3.4,5.6,3.8,8.1c0.4,2.5,0.6,4.4,0.6,5.8c0,1.3-0.1,2.9-0.3,4.8
			c-0.2,1.8-0.7,3.8-1.5,5.8c-0.8,2-2,4.2-3.5,6.3C214.5,1073.7,212.4,1075.8,209.7,1077.8z"/>
		<path class="st0" d="M261.7,1013.7v68.3h-22.4v-68.5H222v-19.9h57.3v20H261.7z"/>
		<path class="st0" d="M373.1,1069.3c-1,1.2-2.6,2.8-4.9,4.8c-2.3,2-5.3,3.8-9.3,5.3c-3.3,1.3-6.6,2-9.6,2.3
			c-3.1,0.3-6.4,0.4-9.9,0.4h-33.8v-88.4h34.8c0.6,0,1.4,0,2.6-0.1c1.1,0,2.5,0,4.1,0.2c1.5,0.2,3.1,0.4,4.9,0.6
			c1.8,0.2,3.6,0.6,5.4,1.2c3.3,1.1,6.4,2.7,9.3,4.7c2.8,2,5.3,4.4,7.4,7.1c2.1,2.7,3.9,5.6,5.4,8.8c1.5,3.2,2.6,6.5,3.4,9.8
			c0.2,1.2,0.5,2.7,0.8,4.4c0.3,1.8,0.4,4.1,0.4,6.8c0,1.5-0.1,3.4-0.2,5.8c-0.2,2.3-0.6,4.9-1.3,7.8c-0.7,2.9-1.8,5.9-3.3,9.1
			C377.8,1063.1,375.8,1066.2,373.1,1069.3z M361.2,1032.1c-0.8-3.8-2.2-7.2-4.3-10.3c-2.1-3.1-5-5.3-8.8-6.8
			c-1.9-0.7-3.7-1.1-5.4-1.2c-1.7-0.1-3.6-0.2-5.7-0.2h-8.8v47.9h12.6c1.8,0,3.4-0.1,4.8-0.2c1.5-0.1,3-0.5,4.6-1.2
			c2.8-1.2,5-2.9,6.6-5.1c1.5-2.3,2.7-4.5,3.4-6.9c0.8-2.3,1.2-4.5,1.3-6.4c0.1-1.9,0.2-3.1,0.2-3.6c0-0.6,0-1.4-0.1-2.4
			C361.7,1034.8,361.5,1033.6,361.2,1032.1z"/>
		<path class="st0" d="M386.7,1082.1v-88.4h50.2v19.8H410v13.1h26.9v20.9h-26.8v14.3h27v20.3H386.7z"/>
		<path class="st0" d="M526,1059.7c-2.2,3.9-4.6,7.2-7.3,10c-2.7,2.7-5.3,5-8,6.8c-2.7,1.8-5.2,3.2-7.6,4.1c-2.4,1-4.4,1.6-6,1.9
			c-0.9,0.2-2.3,0.4-4.3,0.8c-1.9,0.3-4.2,0.5-6.8,0.5c-5.6,0-10.6-0.8-14.9-2.3c-4.3-1.5-8.1-3.3-11.3-5.4
			c-3.2-2.1-5.8-4.3-7.9-6.6c-2.1-2.3-3.7-4.3-4.8-5.9c-0.8-1-1.6-2.3-2.4-3.8c-0.9-1.5-1.7-3.4-2.5-5.4c-0.8-2.1-1.4-4.4-1.9-7
			c-0.5-2.6-0.8-5.5-0.8-8.6c0-6,0.9-11.3,2.6-15.9c1.7-4.6,3.8-8.6,6.2-11.9c2.4-3.3,4.9-6,7.6-8.1c2.6-2.1,4.8-3.7,6.6-4.8
			c0.9-0.6,2.1-1.2,3.6-1.9c1.5-0.7,3.1-1.3,5.1-1.9c1.9-0.6,4.1-1.1,6.4-1.6c2.4-0.4,5-0.6,7.9-0.6c1.4,0,3.2,0.1,5.3,0.3
			c2.1,0.2,4.5,0.7,7,1.4c2.5,0.7,5.3,1.8,8.1,3.2c2.9,1.4,5.8,3.3,8.7,5.6c2.8,2.3,5,4.5,6.9,6.9c1.8,2.3,3.3,4.6,4.5,6.9
			c1,2.1,1.9,4.3,2.8,6.5c0.3,0.8,0.5,1.5,0.8,2.1c0.3,0.7,0.5,1.3,0.6,2h-24.7c-0.4-0.7-0.8-1.3-1.1-1.8c-0.3-0.5-0.6-1-0.9-1.4
			c-2.2-2.9-4.8-5.1-7.8-6.6c-3-1.5-6.4-2.2-10-2.2c-2.3,0-4.3,0.2-5.9,0.6c-1.6,0.4-2.8,0.8-3.6,1.3c-4.3,1.9-7.7,4.8-10.2,8.6
			c-2.5,3.8-3.8,8-3.7,12.7c0,2.2,0.2,4,0.6,5.4c0.4,1.4,0.8,2.5,1.1,3.3c0.4,1,1.1,2.3,2.1,3.9c1,1.6,2.4,3.2,4.1,4.8
			c1.8,1.5,3.9,2.9,6.4,3.9c2.5,1.1,5.5,1.6,8.9,1.6c1.8,0,3.4-0.1,4.6-0.4c1.3-0.3,2.3-0.6,3-0.8c0.8-0.2,2.1-0.8,4.1-1.9
			c2-1.1,3.8-2.7,5.4-4.8c0.3-0.2,0.5-0.5,0.7-0.8c0.2-0.3,0.4-0.6,0.6-0.8l1.6-2.5h24.5c-1.1,3.1-1.9,5.4-2.5,6.9
			C527.3,1057.2,526.7,1058.5,526,1059.7z"/>
		<path class="st0" d="M533.3,1082.1v-88.4h50.2v19.8h-26.9v13.1h26.9v20.9h-26.8v14.3h27v20.3H533.3z"/>
		<path class="st0" d="M661.6,1082.1v-35.7c0-1.3,0-2.7,0-4.1s0-3,0.1-4.8c0-1.8,0.1-3.8,0.2-6.1c0.1-2.3,0.2-5,0.2-8.2
			c-1,3-1.8,5.6-2.5,7.8c-0.7,2.2-1.3,4.2-1.8,5.9c-0.5,1.8-1,3.3-1.5,4.7c-0.5,1.4-0.9,2.7-1.3,4.1c-1.2,3.3-2.3,6.5-3.3,9.8
			c-1,3.3-2.1,6.6-3.3,9.8c-0.9,2.7-1.9,5.4-2.8,8.1c-1,2.8-1.9,5.6-2.8,8.5h-16.4l-9.4-27.9c-0.8-2.2-1.6-4.3-2.3-6.4
			c-0.7-2.1-1.3-4.4-2-6.7l-5.4-17.9c0.1,3.3,0.1,6.1,0.2,8.5c0,2.4,0.1,4.6,0.1,6.4c0,1.9,0.1,3.5,0.1,5c0,1.5,0,2.9,0,4.2v34.8
			h-20.3v-88.4h29.7c1.9,5.8,3.8,11.3,5.6,16.7c1.8,5.4,3.6,10.8,5.3,16.3c1.1,3.3,2.2,6.8,3.3,10.3c1.1,3.5,2.4,7.7,3.9,12.6
			c1.4-4.8,2.6-9,3.7-12.5c1-3.5,2.1-6.8,3.1-10.1c1-3.3,2-6.5,3.1-9.6c1-3.2,2.1-6.4,3.2-9.6c0.7-2.3,1.4-4.5,2.1-6.8
			s1.6-4.7,2.5-7.4h30v88.4H661.6z"/>
		<path class="st0" d="M738.3,1076.2c-3.5,2.8-7.2,4.4-11.1,5c-3.9,0.6-7.9,0.9-12.1,0.9h-28.5v-88.4h32.7c3.5,0,6.8,0.3,9.8,0.8
			c3,0.5,5.8,2.1,8.5,4.6c0.6,0.7,1.3,1.5,2.1,2.6c0.8,1,1.5,2.3,2.3,3.7c0.7,1.4,1.3,3.1,1.8,4.9c0.5,1.9,0.7,3.9,0.7,6.2
			c0,0.8,0,1.9-0.1,3.2c-0.1,1.3-0.4,2.7-0.8,4.1c-0.5,1.4-1.2,2.9-2.2,4.3c-1,1.5-2.4,2.8-4.3,4.1l-2.6,1.9
			c1.4,0.8,2.5,1.3,3.1,1.6c0.7,0.3,1.2,0.6,1.6,0.9c0.9,0.6,1.6,1,2.1,1.4c0.8,0.6,1.6,1.3,2.4,2.3c0.9,0.9,1.7,2,2.4,3.4
			c0.7,1.3,1.3,2.9,1.8,4.7c0.5,1.8,0.8,3.9,0.8,6.2c0,1-0.1,2.4-0.3,4.1c-0.2,1.7-0.6,3.6-1.3,5.6c-0.7,2-1.8,4.1-3.1,6.2
			S740.7,1074.4,738.3,1076.2z M718.9,1012.5c-0.5-0.2-0.9-0.3-1.3-0.4c-0.4-0.1-1.1-0.1-2.1-0.1h-6.9v15.8h7.1c0.2,0,0.6,0,1.4-0.1
			c0.8-0.1,1.4-0.2,2-0.4c1.7-0.6,2.9-1.6,3.6-2.9c0.8-1.4,1.1-2.9,1.1-4.6c0-1.7-0.4-3.2-1.2-4.5
			C721.9,1013.9,720.7,1013,718.9,1012.5z M726.3,1051.5c-0.2-1.1-0.5-2-1-2.9c-1.1-1.8-2.5-3-4.2-3.4c-1.7-0.5-3.5-0.7-5.3-0.7
			h-7.1v18.4h6.8c1.4,0,3-0.2,4.9-0.6c1.4-0.3,2.5-0.9,3.4-1.8c0.8-0.8,1.5-1.7,1.9-2.6c0.4-0.9,0.7-1.7,0.8-2.6
			c0.1-0.8,0.1-1.5,0.1-1.9c0-0.3,0-0.5,0-0.9C726.4,1052.3,726.4,1052,726.3,1051.5z"/>
		<path class="st0" d="M751.1,1082.1v-88.4h50.2v19.8h-26.9v13.1h26.9v20.9h-26.8v14.3h27v20.3H751.1z"/>
		<path class="st0" d="M845.7,1082.1l-18-28.3v28.3h-22.4v-88.4h32.8c4.2,0,8.1,0.3,11.6,0.9c3.6,0.6,7.1,2.2,10.6,4.9
			c1.1,0.8,2.3,1.9,3.5,3.3s2.4,3.1,3.6,5.1s2.1,4.3,2.8,6.9c0.8,2.6,1.1,5.7,1.1,9.1c0,3.5-0.4,6.6-1.3,9.3c-0.8,2.7-1.9,5-3.1,6.9
			c-1.2,2-2.5,3.6-3.9,4.9c-1.4,1.3-2.6,2.3-3.7,3.1c-0.9,0.7-1.9,1.3-2.9,1.8c-1,0.5-2.7,1.2-5,2.1l21.4,30.2H845.7z M847.3,1018.2
			c-1.4-2.3-3.2-3.6-5.3-4.1c-2.1-0.5-4.4-0.7-6.8-0.7h-7.5v24.3h7.1c0.3-0.1,0.6-0.1,1-0.1c0.6,0,1,0,1.4-0.1
			c0.7-0.1,1.3-0.2,1.9-0.3c0.6-0.1,1.2-0.2,1.9-0.4c0.8-0.2,1.6-0.6,2.5-1.2c0.9-0.5,1.8-1.3,2.6-2.3c0.8-1,1.5-2.1,2.1-3.6
			c0.6-1.4,0.9-3.1,0.9-5c0-1.2-0.1-2.3-0.3-3.4C848.5,1020.4,848,1019.3,847.3,1018.2z"/>
		<path class="st0" d="M899.3,1082.1v-16.5c3-2.8,5.9-5.4,8.6-7.9c2.8-2.5,5.5-5.1,8.1-7.7l7.1-6.9c2.4-2.3,4.5-4.5,6.2-6.4
			c1.7-2,3.1-3.8,4.3-5.5c1.1-1.7,2-3.4,2.5-5.1c0.5-1.7,0.8-3.4,0.8-5.1c0-0.5,0-0.9-0.1-1.3c0-0.4-0.1-0.7-0.2-1.1
			c-0.1-0.3-0.1-0.5-0.2-0.7c0-0.2-0.1-0.5-0.2-0.8c-0.6-1.6-1.5-2.9-2.8-3.9c-1.3-1-2.8-1.5-4.6-1.5c-1.5,0-2.8,0.4-4,1.3
			c-1.7,1.2-2.8,2.6-3.4,4.4c-0.6,1.8-0.9,3.7-1,5.6c-0.1,0.5-0.1,1-0.1,1.6c0,0.5,0,1.2,0,1.9l-22-0.1v-3.8c0-0.8,0.1-1.7,0.2-2.6
			c0.1-0.9,0.3-1.9,0.4-2.9c0.4-2.1,1.1-4.3,1.9-6.5c0.9-2.3,2.2-4.5,3.9-6.6c1-1.3,2.2-2.6,3.7-3.9c1.5-1.4,3.3-2.6,5.4-3.8
			c2.1-1.2,4.6-2.1,7.4-2.9c2.8-0.8,6.1-1.1,9.8-1.1c0.8,0,1.8,0,3.1,0.1c1.3,0.1,2.8,0.3,4.4,0.6c1.6,0.3,3.4,0.8,5.2,1.4
			c1.8,0.7,3.7,1.6,5.6,2.8c0.9,0.8,2,1.7,3.3,2.9c1.3,1.2,2.5,2.7,3.8,4.4c1.2,1.8,2.2,3.9,3.1,6.3c0.8,2.4,1.3,5.1,1.3,8.2v1.8
			c0,0.3,0,0.7-0.1,1c0,0.3-0.1,0.7-0.2,1.1c-0.2,0.9-0.3,1.9-0.5,2.8c-0.2,1-0.5,2-0.9,3.1c-0.8,2-1.7,4-2.9,5.9
			c-1.2,1.9-2.5,3.8-3.9,5.6c-1.4,1.8-2.9,3.6-4.4,5.3c-1.5,1.7-3.1,3.4-4.6,4.9l-10.8,11.1h29.2v20.7H899.3z"/>
		<path class="st0" d="M1045.1,1068.4c-4.3,5-9.6,8.9-15.7,11.6c-6.1,2.7-12.5,4.1-19.1,4.1c-6,0-11.9-1.2-17.6-3.6
			c-5.7-2.4-10.7-5.7-15-10c-4.3-4.3-7.6-9.2-10-15c-2.4-5.7-3.6-11.6-3.6-17.7c0-5.8,1-11.3,3.1-16.6c2.1-5.3,5-10.1,8.8-14.3
			c4.3-4.8,9.5-8.6,15.5-11.3c6-2.7,12.3-4,18.8-4c1.3,0,3.1,0.1,5.3,0.3c2.2,0.2,4.7,0.7,7.3,1.5c2.7,0.8,5.5,1.9,8.5,3.4
			c3,1.5,6,3.4,8.9,5.9c5.1,4.3,9.1,9.6,11.9,15.8c2.8,6.2,4.3,12.6,4.3,19.4c0,5.5-1,10.9-2.9,16.1
			C1051.7,1059.4,1048.9,1064.2,1045.1,1068.4z M1029.5,1022.3c-1.7-2-3.4-3.6-5.3-4.8c-1.8-1.2-3.6-2.1-5.4-2.7
			c-1.8-0.6-3.4-1-4.9-1.2c-1.5-0.2-2.7-0.2-3.5-0.2c-3.5,0-6.9,0.8-10.1,2.3c-4.3,1.9-7.8,4.9-10.5,8.9c-2.7,4-4,8.5-4,13.5
			c0,0.8,0.1,1.8,0.2,3.1c0.1,1.3,0.4,2.8,0.9,4.3c0.5,1.5,1.2,3.2,2.2,4.9c1,1.8,2.3,3.5,3.9,5.1c2.4,2.3,5.1,4.1,8.1,5.3
			c3,1.2,6.1,1.8,9.3,1.8c0.8,0,1.7-0.1,2.8-0.2c1.1-0.1,2.4-0.4,3.8-0.8c1.4-0.4,2.9-1,4.5-1.8c1.6-0.8,3.1-1.8,4.6-3.1
			c2-1.6,3.6-3.3,4.8-5.2c1.2-1.9,2.1-3.7,2.7-5.4c0.6-1.8,1-3.4,1.2-4.8c0.2-1.5,0.2-2.6,0.2-3.6
			C1035.1,1032,1033.2,1026.8,1029.5,1022.3z"/>
		<path class="st0" d="M1065.5,1082.1v-71.5h-10.1v-16.9h32.3v88.4H1065.5z"/>
		<path class="st0" d="M1142.3,1078.6c-1.7,1.2-4.2,2.4-7.4,3.6c-3.3,1.3-7.5,1.9-12.6,1.9c-1.2,0-2.9-0.1-5.3-0.3
			c-2.3-0.2-4.9-0.8-7.8-1.8c-2.8-1-5.3-2.4-7.6-4.1c-2.3-1.7-4.3-3.7-6-6c-1.7-2.3-3-4.8-4-7.5c-1-2.7-1.4-5.6-1.4-8.6
			c0-2.8,0.4-5.4,1.2-7.6c0.8-2.2,1.7-4.1,2.8-5.8c1.1-1.6,2.2-3,3.4-4.1c1.2-1.1,2.1-1.9,2.9-2.4l3.1-2c-1.5-1.2-2.7-2.1-3.5-2.9
			c-0.9-0.8-1.6-1.6-2.2-2.3c-0.9-1.3-1.7-2.8-2.2-4.6c-0.6-1.8-0.9-4-0.9-6.7c0-2.7,0.3-4.8,0.9-6.5c0.6-1.7,1.1-3,1.6-3.9
			c0.7-1.3,1.8-2.9,3-4.6c1.3-1.8,3-3.4,5.1-4.9c2.1-1.5,4.7-2.8,7.6-3.8c3-1,6.4-1.6,10.5-1.6c0.8,0,1.7,0,2.9,0.1
			c1.2,0.1,2.5,0.3,3.9,0.6c1.5,0.3,3,0.8,4.7,1.4c1.7,0.7,3.3,1.6,5,2.8c2.9,2.2,5.4,4.9,7.3,8.2c2,3.3,2.9,6.9,2.9,10.7
			c0,3.5-0.6,6.4-1.7,8.8c-1.1,2.4-2.1,4-2.9,4.9c-0.4,0.6-0.9,1.1-1.5,1.6c-0.6,0.5-1.5,1.2-2.6,2.1c1.2,0.7,2,1.1,2.4,1.4
			c0.5,0.2,0.8,0.5,1.1,0.8c0.2,0.2,0.5,0.4,0.8,0.6c0.3,0.2,0.5,0.4,0.9,0.7c1.9,1.5,3.4,3.2,4.6,5.1c1.1,1.9,2,3.7,2.6,5.4
			c0.6,1.8,1,3.4,1.1,4.8c0.2,1.5,0.2,2.6,0.2,3.4c0,3.3-0.5,6.2-1.6,8.7c-1,2.5-2.3,4.8-3.6,6.7c-1.4,1.9-2.8,3.5-4.2,4.8
			C1144.3,1077.1,1143.1,1078,1142.3,1078.6z M1122.6,1043.9c-1.5,0-2.9,0.3-4.1,0.8c-1.3,0.5-2.4,1.3-3.3,2.3c-1,1-1.7,2.1-2.3,3.3
			c-0.5,1.3-0.8,2.6-0.8,4c0.2,0.7,0.3,1.3,0.3,1.8c0,0.5,0.1,0.9,0.3,1.3c0.4,1.7,1.3,3.1,2.6,4.4c1.3,1.3,2.7,2.2,4.1,2.5
			c1.4,0.3,2.4,0.5,3.2,0.5c2.9,0,5.4-1,7.4-3.1c2-2,3-4.5,3-7.3c0-1.5-0.3-2.9-0.8-4.1c-0.5-1.3-1.3-2.3-2.3-3.3
			c-1-0.9-2.1-1.6-3.3-2.2C1125.3,1044.2,1124,1043.9,1122.6,1043.9z M1122.5,1010.7c-2.3,0-4.3,0.8-5.8,2.4
			c-1.5,1.6-2.3,3.5-2.3,5.8c0,0.5,0.1,1.3,0.3,2.3c0.2,1,0.9,2.1,2.1,3.2c1.2,1.2,2.3,1.9,3.3,2.1c1,0.2,1.8,0.3,2.3,0.3
			c2.3,0,4.3-0.8,5.8-2.3c1.5-1.5,2.3-3.4,2.3-5.7c0-2.3-0.8-4.3-2.3-5.8S1124.8,1010.7,1122.5,1010.7z"/>
	</g>
	<g>
		<path class="st1" d="M327,804.9L141.7,534.4v270.5H0V273h124.3c23.1,33.2,45.8,65.6,68.2,97.2c22.4,31.6,44.8,64.6,67.4,98.7
			l49.7,76.1V273h142.4v532H327z"/>
		<path class="st1" d="M758,606.8v198.2H611.8V609L452.8,273h159l63.6,152.2c2,5,3.9,9.9,5.7,14.7c1.8,4.8,3.7,9.9,5.7,15.4
			c4-9,7.7-17.8,11-26.4c3.3-8.5,6.9-17.3,11-26.4L763.3,273h151.5L758,606.8z"/>
		<path class="st1" d="M914.7,804.9V273h302.2v128.1h-155.2v65.6h155.2v134.9h-154.5v71.6h156v131.9H914.7z"/>
	</g>
	<g>
		<g>
			<path class="st0" d="M1199.3,97c0,48.7-39.8,88.1-88.5,88.1l-62.5,0V9l62.9,0C1159.9,8.9,1199.3,48.4,1199.3,97 M1152,96.7
				c0-26.8-20.9-46.2-46.8-46.3l-10.4-0.1v92.9l10.4,0C1131.1,143.2,1152,123.5,1152,96.7"/>
			<path class="st0" d="M298.5,96.7c0,51.4-42.1,93.1-93.5,93.1l-2.4,0v-48.5h4.3c23.8,0,43.2-19.9,43.2-44.6
				c0-24.7-19.3-44.6-43.2-44.7l-4.3,0V3.6h2.9C256.8,3.6,298.5,45.3,298.5,96.7"/>
			<polygon class="st0" points="405.4,48.1 351.7,48.1 351.7,74.6 405.4,74.6 405.4,116 351.9,116 351.9,145 405.9,145 405.9,185.2 
				305.2,185.2 305.2,8.9 405.4,8.9 			"/>
			<polygon class="st0" points="518.3,48.6 460.9,48.6 460.9,76.8 518.1,76.8 518.1,118 460.9,118 460.9,185.2 416.2,185.2 
				416.2,8.9 518.3,8.9 			"/>
			<polygon class="st0" points="629.4,48.1 575.7,48.1 575.7,74.6 629.4,74.6 629.4,116 576,116 576,145 629.9,145 629.9,185.2 
				529.3,185.2 529.3,8.9 629.4,8.9 			"/>
			<path class="st0" d="M767.9,74.8c-1.3-2.5-2.7-4.5-4.2-6.7c-8.5-11.2-21.2-17.5-35.5-17.5c-9.2,0-15.7,2.5-19,4
				c-17.2,7.2-27.7,24-27.7,42.5c0.3,8.5,2.2,14.2,3.5,17.2c3.5,8.2,16,28.7,43.2,28.7c7.2,0,12.2-1.5,15.2-2.5
				c2.8-1,12.5-5.5,19.2-13.5c1.8-2.2,2.8-3.7,5.5-8.2H817c-3.7,11.5-6,16.5-8.7,21.7c-17,31.5-45.2,42.4-57.7,45.4
				c-3.7,1-11.7,2.5-22,2.5c-44.7,0-68.4-27.5-77.4-40.4c-5.7-8.2-15.2-24.5-15.2-49.7c0-47.9,31.5-72.7,45.7-81.1
				c7.2-4.3,23.5-12,45.9-12c11.5,0,34.9,2,58.2,21c21.7,17.7,28,38.5,31,48.7H767.9z"/>
			<polygon class="st0" points="925.4,48.6 890.2,48.6 890.2,185.2 845.5,185.2 845.5,48.4 811,48.4 811,8.9 925.4,8.9 			"/>
			<polygon class="st0" points="1036.4,48.1 982.6,48.1 982.6,74.6 1036.4,74.6 1036.4,116 982.9,116 982.9,145 1036.8,145 
				1036.8,185.2 936.2,185.2 936.2,8.9 1036.4,8.9 			"/>
			<polygon class="st0" points="1179.1,13 1179.1,8.7 1195.4,8.7 1195.4,13 1189.8,13 1189.8,28 1184.7,28 1184.7,13 			"/>
			<path class="st0" d="M1213.6,14.5L1213.6,14.5l-3.7,13.5h-4.1l-3.7-13.5l-0.2-0.8c0,0.4,0,14.3,0,14.3h-4.5V8.7h7.1l3,11.3
				c0.2,0.7,0.4,1.7,0.4,2.9c0,0.3,0.1,0.6,0.1,0.9c0-0.7,0-1.4,0.1-2c0.1-0.9,0.2-1.4,0.3-1.8l3-11.3h7.1V28h-4.8V14.5z"/>
		</g>
		<rect x="0.4" class="st0" width="192.9" height="192.9"/>
	</g>
</g>
</svg>
