<svg xmlns="http://www.w3.org/2000/svg" viewBox="0 0 561.46 634.96"><defs><style>.cls-1,.cls-3,.cls-6{fill:#fff;}.cls-2{fill:#ff0024;}.cls-3{font-size:147.89px;letter-spacing:-0.05em;}.cls-3,.cls-6{font-family:AvantGardeDefected-Bold, Avant Garde Defected Bold;font-weight:700;}.cls-4{letter-spacing:0em;}.cls-5{letter-spacing:0.02em;}.cls-6{font-size:92.29px;}.cls-7{letter-spacing:-0.01em;}</style></defs><title>Asset 15</title><g id="Layer_2" data-name="Layer 2"><g id="TEXT"><polygon class="cls-1" points="140.2 4.04 140.2 84.09 185.9 84.09 185.9 65.84 161.4 65.84 161.4 52.68 185.67 52.68 185.67 33.86 161.29 33.86 161.29 21.84 185.67 21.84 185.67 4.04 140.2 4.04"/><path class="cls-1" d="M95.54,23.57c10.82.06,19.6,9.09,19.6,20.32s-8.78,20.24-19.6,20.24h-2v22h1.12a42.26,42.26,0,1,0,.18-84.52h-1.3v21.9Z"/><polygon class="cls-1" points="287.67 84.09 287.67 65.84 263.18 65.84 263.18 52.68 287.45 52.68 287.45 33.86 263.07 33.86 263.07 21.84 287.45 21.84 287.45 4.04 241.97 4.04 241.97 84.09 287.67 84.09"/><rect class="cls-1" x="1.75" width="87.62" height="87.61"/><polygon class="cls-1" points="236.97 4.04 190.6 4.04 190.6 84.09 210.9 84.09 210.9 53.59 236.87 53.59 236.87 34.88 210.9 34.88 210.9 22.07 236.97 22.07 236.97 4.04"/><polygon class="cls-1" points="472.49 84.09 472.49 65.84 448 65.84 448 52.68 472.26 52.68 472.26 33.86 447.88 33.86 447.88 21.84 472.26 21.84 472.26 4.04 426.8 4.04 426.8 84.09 472.49 84.09"/><path class="cls-1" d="M477.74,4.06v80h28.37a40,40,0,1,0,.17-80Zm25.83,18.81c11.72.07,21.23,8.88,21.23,21A20.84,20.84,0,0,1,503.57,65h-4.73V22.83Z"/><polygon class="cls-1" points="421.86 4.04 369.93 4.04 369.93 21.95 385.58 21.95 385.58 84.09 405.88 84.09 405.88 22.07 421.86 22.07 421.86 4.04"/><path class="cls-1" d="M290.45,44.63a38.42,38.42,0,0,0,6.91,22.57,41.84,41.84,0,0,0,35.16,18.37,40.68,40.68,0,0,0,10-1.14,41.56,41.56,0,0,0,26.19-20.64,57.2,57.2,0,0,0,4-9.86H350.43a34.14,34.14,0,0,1-2.49,3.74,23.16,23.16,0,0,1-8.74,6.12,20.57,20.57,0,0,1-6.91,1.14c-12.35,0-18-9.3-19.61-13a21.48,21.48,0,0,1-1.59-7.83,20.66,20.66,0,0,1,12.59-19.27A20.31,20.31,0,0,1,332.29,23a19.8,19.8,0,0,1,16.1,7.94A28,28,0,0,1,350.32,34h22.22a41.9,41.9,0,0,0-14.06-22.12,41.1,41.1,0,0,0-26.41-9.52A41.66,41.66,0,0,0,311.2,7.78,42.3,42.3,0,0,0,290.45,44.63Z"/><polygon class="cls-1" points="544.5 5.89 544.5 3.96 537.12 3.96 537.12 5.88 539.66 5.88 539.66 12.71 541.98 12.71 541.98 5.89 544.5 5.89"/><path class="cls-1" d="M547.47,12.71s0-6.33,0-6.49l.09.37,1.68,6.12h1.86l1.67-6.12v6.12H555V4h-3.21L550.39,9.1a7.49,7.49,0,0,0-.15.84c0,.3,0,.62,0,.92,0-.13,0-.28,0-.42A7,7,0,0,0,550,9.1L548.63,4h-3.21v8.75Z"/><path class="cls-2" d="M147.69,362.62,65,242V362.62H1.88V125.42H57.31q15.45,22.19,30.41,43.34t30.07,44L140,246.71V125.42h63.5v237.2Z"/><path class="cls-2" d="M344.9,274.26v88.36H279.72V275.27L208.83,125.42h70.89l28.37,67.87c.9,2.24,1.75,4.42,2.53,6.55s1.64,4.43,2.54,6.89q2.7-6,4.9-11.76T323,183.21l24.3-57.79h67.54Z"/><path class="cls-2" d="M419.82,362.62V125.42H554.55v57.12H485.34v29.23h69.21v60.14H485.68v31.91h69.54v58.8Z"/><text class="cls-3" transform="translate(0.38 505.18)">L<tspan class="cls-4" x="55.31" y="0">ONDO</tspan><tspan class="cls-5" x="464.96" y="0">N</tspan></text><text class="cls-6" transform="translate(0 609.3)"><tspan class="cls-7">3</tspan><tspan x="45.96" y="0">1</tspan><tspan class="cls-7" x="71.62" y="0">S</tspan><tspan x="115.83" y="0">T DEC 2018</tspan></text></g></g></svg>